<svg xmlns="http://www.w3.org/2000/svg" viewBox="0 0 612 612"><defs><style>.cls-1{fill:#1c59ff;}.cls-2{fill:#fff;}</style></defs><title>Asset 2</title><g id="Layer_2" data-name="Layer 2"><g id="Layer_1-2" data-name="Layer 1"><path class="cls-1" d="M486.49,0h-361A125.65,125.65,0,0,0,0,125.51v361A125.65,125.65,0,0,0,125.51,612h361A125.65,125.65,0,0,0,612,486.49v-361A125.65,125.65,0,0,0,486.49,0Z"/><path class="cls-2" d="M218.7,220.74H203.12V192.23a99.15,99.15,0,0,1,29.63-70.3,93.77,93.77,0,0,1,67.88-27.34c51.75,1,93.84,43.91,93.84,95.67,0,.72,0,6.05-.07,11.2,0,3,0,5.64-.16,7.83,0,1,0,1.5,0,1.75h-.15c-.53,5.83-2.19,8.2-7.63,8.2-6,0-7.39-4.62-7.72-8.26h-.05c0-.1,0-.24,0-.44-.06-.9-.07-1.74-.07-2.4v-11.7h.22c0-3.1,0-5.62,0-6.19,0-43.33-35.24-79.26-78.56-80.08-21.06-.45-41.21,7.71-56.67,22.88a83.46,83.46,0,0,0-25,59.17Z"/><path class="cls-2" d="M394.47,517.42H203.12V396.52H218.7V501.84H378.89V388.73h47.69a83.43,83.43,0,0,0,59.15-25,78.38,78.38,0,0,0,22.91-56.69c-.82-43.32-36.74-78.57-80.08-78.57H378.89v-16h15.58v.38h34.09c51.77,0,94.68,42.1,95.65,93.85a93.84,93.84,0,0,1-27.35,67.9,99.1,99.1,0,0,1-70.28,29.63H394.47Z"/><path class="cls-2" d="M296.2,509.78H280.62V404.31H87.77V245.18A32.28,32.28,0,0,1,120,212.93h98.7v95.7H203.12V228.51H120a16.68,16.68,0,0,0-16.65,16.67V388.73H296.2Z"/><polygon class="cls-2" points="383.19 403.49 211.76 317.77 100.28 402.72 90.83 390.32 210.05 299.49 390.16 389.55 383.19 403.49"/></g></g></svg>