<svg xmlns="http://www.w3.org/2000/svg" width="63.286" height="42.458" viewBox="0 0 63.286 42.458">
  <g id="Group_8703" data-name="Group 8703" transform="translate(-112 -210)">
    <path id="Path_6940" data-name="Path 6940" d="M139.783,148.121a.982.982,0,0,1,.586-.133h2.987a.329.329,0,0,0,.373-.333v-.1a.313.313,0,0,0-.121-.256.364.364,0,0,0-.253-.094h-2.987a1.733,1.733,0,0,0-1.15.336,1.39,1.39,0,0,0-.4,1.118v6.013a1.72,1.72,0,0,0,.179.84,1.134,1.134,0,0,0,.543.472,2.223,2.223,0,0,0,.834.136h2.987a.336.336,0,0,0,.373-.35v-.09a.332.332,0,0,0-.373-.339h-2.987a1.015,1.015,0,0,1-.589-.129c-.08-.059-.153-.212-.153-.539v-2.817h3.728a.334.334,0,0,0,.373-.345v-.119a.315.315,0,0,0-.116-.251.372.372,0,0,0-.258-.088h-3.728v-2.393c0-.322.072-.477.155-.541" transform="translate(4.753 96.268)" fill="#fff"/>
    <path id="Path_6941" data-name="Path 6941" d="M6.165,146.96a.7.7,0,0,0-.67.45l-2.043,4.275-.01-.024L1.41,147.41a.7.7,0,0,0-.67-.45.774.774,0,0,0-.531.18.689.689,0,0,0-.209.538v7.88a.382.382,0,0,0,.092.25.328.328,0,0,0,.259.123H.463a.335.335,0,0,0,.254-.112.378.378,0,0,0,.1-.261l.006-7.579L2.725,152a1.033,1.033,0,0,0,.313.394.752.752,0,0,0,.417.11.774.774,0,0,0,.416-.109.985.985,0,0,0,.309-.4l1.911-4.032v7.592a.382.382,0,0,0,.092.25.328.328,0,0,0,.259.123h.113a.335.335,0,0,0,.254-.112.378.378,0,0,0,.1-.261v-7.88a.7.7,0,0,0-.2-.536.768.768,0,0,0-.539-.182" transform="translate(112 96.46)" fill="#fff"/>
    <path id="Path_6942" data-name="Path 6942" d="M43.814,154.332A5.134,5.134,0,0,0,44.2,152.2v-1.437a5.755,5.755,0,0,0-.222-1.679,3.2,3.2,0,0,0-.643-1.2,2.549,2.549,0,0,0-.992-.7,3.709,3.709,0,0,0-2.515,0,2.548,2.548,0,0,0-.992.7,3.269,3.269,0,0,0-.648,1.2,5.753,5.753,0,0,0-.222,1.68V152.2a5.131,5.131,0,0,0,.387,2.134,2.71,2.71,0,0,0,1.1,1.268,3.51,3.51,0,0,0,3.251,0,2.714,2.714,0,0,0,1.1-1.268m-1.52.59a2.444,2.444,0,0,1-1.209.286c-1.519,0-2.3-.948-2.3-3.01v-1.437c0-2.062.783-3.01,2.3-3.01a2.409,2.409,0,0,1,1.209.292,1.9,1.9,0,0,1,.8.946,4.448,4.448,0,0,1,.3,1.772V152.2a4.486,4.486,0,0,1-.3,1.777,1.928,1.928,0,0,1-.8.946" transform="translate(82.666 96.46)" fill="#fff"/>
    <path id="Path_6943" data-name="Path 6943" d="M77.808,155.886a.414.414,0,0,0,.206.092,1.381,1.381,0,0,0,.279.02.643.643,0,0,0,.486-.208.775.775,0,0,0,.187-.533V147.39a.4.4,0,0,0-.086-.255.325.325,0,0,0-.259-.118h-.142a.34.34,0,0,0-.251.115.4.4,0,0,0-.088.258v7.539l-3.755-7.52a.787.787,0,0,0-.251-.329.715.715,0,0,0-.441-.12.726.726,0,0,0-.511.193.688.688,0,0,0-.207.524v7.88a.384.384,0,0,0,.092.25.328.328,0,0,0,.258.123h.113a.335.335,0,0,0,.254-.112.378.378,0,0,0,.1-.261l.015-7.51,3.752,7.521a.894.894,0,0,0,.251.317" transform="translate(55.619 96.46)" fill="#fff"/>
    <path id="Path_6944" data-name="Path 6944" d="M108.179,156a.324.324,0,0,0,.253.123h.119a.329.329,0,0,0,.258-.123.386.386,0,0,0,.092-.25v-7.761h2.325c.19,0,.373-.089.373-.322v-.108a.314.314,0,0,0-.12-.256.367.367,0,0,0-.253-.094h-5.481a.393.393,0,0,0-.255.091.323.323,0,0,0-.118.259v.108c0,.233.183.322.373.322h2.342v7.761a.384.384,0,0,0,.092.25" transform="translate(30.59 96.268)" fill="#fff"/>
    <path id="Path_6945" data-name="Path 6945" d="M258.553,155.364l-2.216-3.417a3.925,3.925,0,0,0,.723-.232,2.073,2.073,0,0,0,.69-.483,1.98,1.98,0,0,0,.417-.728,3.163,3.163,0,0,0,.143-1.027,2.958,2.958,0,0,0-.21-1.174,1.794,1.794,0,0,0-.636-.8,2.822,2.822,0,0,0-1.022-.42,6.938,6.938,0,0,0-1.435-.127q-.262,0-.921.017l-.9.029a.417.417,0,0,0-.242.131.378.378,0,0,0-.094.242v8.179a.383.383,0,0,0,.092.25.328.328,0,0,0,.258.123h.113a.336.336,0,0,0,.254-.112.378.378,0,0,0,.1-.261v-3.518l.491,0,.849.006h.416l2.432,3.723a.408.408,0,0,0,.293.157h.153a.31.31,0,0,0,.339-.328.5.5,0,0,0-.086-.239m-3.545-4.1-.713-.005-.629-.005v-3.464q.459-.033,1.341-.033a3.587,3.587,0,0,1,1.914.395,1.493,1.493,0,0,1,.575,1.388,1.841,1.841,0,0,1-.256,1.057,1.325,1.325,0,0,1-.77.511,5.466,5.466,0,0,1-1.462.158" transform="translate(-83.353 96.459)" fill="#fff"/>
    <path id="Path_6946" data-name="Path 6946" d="M183.561,152.393a.75.75,0,0,0,.417.11.776.776,0,0,0,.416-.109.982.982,0,0,0,.309-.4l1.911-4.032v7.592a.383.383,0,0,0,.092.251.329.329,0,0,0,.258.123h.113a.335.335,0,0,0,.254-.112.378.378,0,0,0,.1-.261v-7.88a.7.7,0,0,0-.2-.536.77.77,0,0,0-.539-.182.7.7,0,0,0-.67.45l-2.043,4.275-.01-.024-2.032-4.251a.7.7,0,0,0-.67-.45.775.775,0,0,0-.531.18.69.69,0,0,0-.209.538v7.88a.384.384,0,0,0,.092.251.329.329,0,0,0,.258.123h.113a.335.335,0,0,0,.254-.112.377.377,0,0,0,.1-.261l.006-7.579L183.248,152a1.03,1.03,0,0,0,.313.393" transform="translate(-27.47 96.46)" fill="#fff"/>
    <path id="Path_6947" data-name="Path 6947" d="M221.6,147.624a.859.859,0,0,0-.327-.488.9.9,0,0,0-.56-.177.883.883,0,0,0-.9.674l-2.375,7.843a.48.48,0,0,0-.018.148.31.31,0,0,0,.328.339h.147a.344.344,0,0,0,.331-.253l.918-3.034h3.112l.939,3.03a.325.325,0,0,0,.333.257h.136a.311.311,0,0,0,.339-.328.509.509,0,0,0-.03-.159Zm-2.226,4.234,1.22-4.021c.023-.088.058-.109.119-.109s.088.015.12.123l1.2,4.007Z" transform="translate(-55.979 96.46)" fill="#fff"/>
    <path id="Path_6948" data-name="Path 6948" d="M38.534,23.351a5.113,5.113,0,0,1,.331-.473C43.627,16.7,51.572,21,56.61,24.229c15.952,9.373,28.407-12.4,15.016-21.78C61.843-4.4,49.275,4.162,50.969,15.231c.272,1.776,1.97,1.384,1.7-.393C51.319,6.025,62.3-.793,70.08,4.658c10.568,7.4.927,24.874-12.06,17.275-6.353-4.1-14.612-7.926-20.386-.441a7.094,7.094,0,0,0-.54.787c-.753,1.136.614,2.146,1.439,1.072" transform="translate(83.509 210)" fill="#fff"/>
    <path id="Path_6949" data-name="Path 6949" d="M136.225,34.116a3.3,3.3,0,0,0,.876-3.156,7.187,7.187,0,0,0-8.22-6.056,7.674,7.674,0,0,0-6.225,8.891c.736,4.174,4.768,7.21,8.891,6.225,1.024-.244.939-1.7-.292-1.465-2.7.525-5.466-2.52-5.944-5.228-1.12-6.35,8.681-8.272,10.216-2.089a2.536,2.536,0,0,1-.335,2.08c-.585.661.382,1.3,1.034.8" transform="translate(17.328 190.84)" fill="#fff"/>
  </g>
</svg>
